<svg width="534" height="18" viewBox="0 0 534 18" fill="none" xmlns="http://www.w3.org/2000/svg">
<path d="M12.86 1.71V17H10.352V10.312H3.158V17H0.65V1.71H3.158V8.266H10.352V1.71H12.86ZM21.4197 17.198C20.2757 17.198 19.2417 16.9413 18.3177 16.428C17.3937 15.9 16.6677 15.1667 16.1397 14.228C15.6117 13.2747 15.3477 12.1747 15.3477 10.928C15.3477 9.696 15.6191 8.60333 16.1617 7.65C16.7044 6.69667 17.4451 5.96333 18.3837 5.45C19.3224 4.93667 20.3711 4.68 21.5297 4.68C22.6884 4.68 23.7371 4.93667 24.6757 5.45C25.6144 5.96333 26.3551 6.69667 26.8977 7.65C27.4404 8.60333 27.7117 9.696 27.7117 10.928C27.7117 12.16 27.4331 13.2527 26.8757 14.206C26.3184 15.1593 25.5557 15.9 24.5877 16.428C23.6344 16.9413 22.5784 17.198 21.4197 17.198ZM21.4197 15.02C22.0651 15.02 22.6664 14.866 23.2237 14.558C23.7957 14.25 24.2577 13.788 24.6097 13.172C24.9617 12.556 25.1377 11.808 25.1377 10.928C25.1377 10.048 24.9691 9.30733 24.6317 8.706C24.2944 8.09 23.8471 7.628 23.2897 7.32C22.7324 7.012 22.1311 6.858 21.4857 6.858C20.8404 6.858 20.2391 7.012 19.6817 7.32C19.1391 7.628 18.7064 8.09 18.3837 8.706C18.0611 9.30733 17.8997 10.048 17.8997 10.928C17.8997 12.2333 18.2297 13.2453 18.8897 13.964C19.5644 14.668 20.4077 15.02 21.4197 15.02ZM44.865 4.68C45.8183 4.68 46.669 4.878 47.417 5.274C48.1797 5.67 48.7737 6.25667 49.199 7.034C49.639 7.81133 49.859 8.75 49.859 9.85V17H47.373V10.224C47.373 9.13867 47.1017 8.31 46.559 7.738C46.0164 7.15133 45.2757 6.858 44.337 6.858C43.3984 6.858 42.6504 7.15133 42.093 7.738C41.5504 8.31 41.279 9.13867 41.279 10.224V17H38.793V10.224C38.793 9.13867 38.5217 8.31 37.979 7.738C37.4363 7.15133 36.6957 6.858 35.757 6.858C34.8183 6.858 34.0703 7.15133 33.513 7.738C32.9703 8.31 32.699 9.13867 32.699 10.224V17H30.191V4.878H32.699V6.264C33.1097 5.76533 33.6303 5.37667 34.261 5.098C34.8917 4.81933 35.5663 4.68 36.285 4.68C37.253 4.68 38.1183 4.88533 38.881 5.296C39.6437 5.70667 40.2303 6.30067 40.641 7.078C41.0077 6.34467 41.5797 5.76533 42.357 5.34C43.1343 4.9 43.9704 4.68 44.865 4.68ZM64.1604 10.642C64.1604 11.0967 64.1311 11.5073 64.0724 11.874H54.8104C54.8837 12.842 55.2431 13.6193 55.8884 14.206C56.5337 14.7927 57.3257 15.086 58.2644 15.086C59.6137 15.086 60.5671 14.5213 61.1244 13.392H63.8304C63.4637 14.5067 62.7964 15.4233 61.8284 16.142C60.8751 16.846 59.6871 17.198 58.2644 17.198C57.1057 17.198 56.0644 16.9413 55.1404 16.428C54.2311 15.9 53.5124 15.1667 52.9844 14.228C52.4711 13.2747 52.2144 12.1747 52.2144 10.928C52.2144 9.68133 52.4637 8.58867 52.9624 7.65C53.4757 6.69667 54.1871 5.96333 55.0964 5.45C56.0204 4.93667 57.0764 4.68 58.2644 4.68C59.4084 4.68 60.4277 4.92933 61.3224 5.428C62.2171 5.92667 62.9137 6.63067 63.4124 7.54C63.9111 8.43467 64.1604 9.46867 64.1604 10.642ZM61.5424 9.85C61.5277 8.926 61.1977 8.18533 60.5524 7.628C59.9071 7.07067 59.1077 6.792 58.1544 6.792C57.2891 6.792 56.5484 7.07067 55.9324 7.628C55.3164 8.17067 54.9497 8.91133 54.8324 9.85H61.5424ZM138.71 13.876H132.308L131.208 17H128.59L134.068 1.688H136.972L142.45 17H139.81L138.71 13.876ZM138.006 11.83L135.52 4.724L133.012 11.83H138.006ZM147.34 6.682C147.765 6.09533 148.344 5.61867 149.078 5.252C149.826 4.87067 150.654 4.68 151.564 4.68C152.634 4.68 153.602 4.93667 154.468 5.45C155.333 5.96333 156.015 6.69667 156.514 7.65C157.012 8.58867 157.262 9.66667 157.262 10.884C157.262 12.1013 157.012 13.194 156.514 14.162C156.015 15.1153 155.326 15.8633 154.446 16.406C153.58 16.934 152.62 17.198 151.564 17.198C150.625 17.198 149.789 17.0147 149.056 16.648C148.337 16.2813 147.765 15.812 147.34 15.24V17H144.832V0.72H147.34V6.682ZM154.71 10.884C154.71 10.048 154.534 9.32933 154.182 8.728C153.844 8.112 153.39 7.65 152.818 7.342C152.26 7.01933 151.659 6.858 151.014 6.858C150.383 6.858 149.782 7.01933 149.21 7.342C148.652 7.66467 148.198 8.134 147.846 8.75C147.508 9.366 147.34 10.092 147.34 10.928C147.34 11.764 147.508 12.4973 147.846 13.128C148.198 13.744 148.652 14.2133 149.21 14.536C149.782 14.8587 150.383 15.02 151.014 15.02C151.659 15.02 152.26 14.8587 152.818 14.536C153.39 14.1987 153.844 13.7147 154.182 13.084C154.534 12.4533 154.71 11.72 154.71 10.884ZM165 17.198C163.856 17.198 162.822 16.9413 161.898 16.428C160.974 15.9 160.248 15.1667 159.72 14.228C159.192 13.2747 158.928 12.1747 158.928 10.928C158.928 9.696 159.199 8.60333 159.742 7.65C160.284 6.69667 161.025 5.96333 161.964 5.45C162.902 4.93667 163.951 4.68 165.11 4.68C166.268 4.68 167.317 4.93667 168.256 5.45C169.194 5.96333 169.935 6.69667 170.478 7.65C171.02 8.60333 171.292 9.696 171.292 10.928C171.292 12.16 171.013 13.2527 170.456 14.206C169.898 15.1593 169.136 15.9 168.168 16.428C167.214 16.9413 166.158 17.198 165 17.198ZM165 15.02C165.645 15.02 166.246 14.866 166.804 14.558C167.376 14.25 167.838 13.788 168.19 13.172C168.542 12.556 168.718 11.808 168.718 10.928C168.718 10.048 168.549 9.30733 168.212 8.706C167.874 8.09 167.427 7.628 166.87 7.32C166.312 7.012 165.711 6.858 165.066 6.858C164.42 6.858 163.819 7.012 163.262 7.32C162.719 7.628 162.286 8.09 161.964 8.706C161.641 9.30733 161.48 10.048 161.48 10.928C161.48 12.2333 161.81 13.2453 162.47 13.964C163.144 14.668 163.988 15.02 165 15.02ZM184.749 4.878V17H182.241V15.57C181.845 16.0687 181.324 16.4647 180.679 16.758C180.048 17.0367 179.374 17.176 178.655 17.176C177.702 17.176 176.844 16.978 176.081 16.582C175.333 16.186 174.739 15.5993 174.299 14.822C173.874 14.0447 173.661 13.106 173.661 12.006V4.878H176.147V11.632C176.147 12.7173 176.418 13.5533 176.961 14.14C177.504 14.712 178.244 14.998 179.183 14.998C180.122 14.998 180.862 14.712 181.405 14.14C181.962 13.5533 182.241 12.7173 182.241 11.632V4.878H184.749ZM190.984 6.924V13.634C190.984 14.0887 191.087 14.4187 191.292 14.624C191.512 14.8147 191.879 14.91 192.392 14.91H193.932V17H191.952C190.823 17 189.958 16.736 189.356 16.208C188.755 15.68 188.454 14.822 188.454 13.634V6.924H187.024V4.878H188.454V1.864H190.984V4.878H193.932V6.924H190.984ZM269.799 6.264C269.799 7.04133 269.616 7.77467 269.249 8.464C268.882 9.15333 268.296 9.718 267.489 10.158C266.682 10.5833 265.648 10.796 264.387 10.796H261.615V17H259.107V1.71H264.387C265.56 1.71 266.55 1.91533 267.357 2.326C268.178 2.722 268.787 3.26467 269.183 3.954C269.594 4.64333 269.799 5.41333 269.799 6.264ZM264.387 8.75C265.34 8.75 266.052 8.53733 266.521 8.112C266.99 7.672 267.225 7.056 267.225 6.264C267.225 4.592 266.279 3.756 264.387 3.756H261.615V8.75H264.387ZM274.699 6.638C275.066 6.022 275.55 5.54533 276.151 5.208C276.767 4.856 277.493 4.68 278.329 4.68V7.276H277.691C276.708 7.276 275.96 7.52533 275.447 8.024C274.948 8.52267 274.699 9.388 274.699 10.62V17H272.191V4.878H274.699V6.638ZM285.892 17.198C284.748 17.198 283.714 16.9413 282.79 16.428C281.866 15.9 281.14 15.1667 280.612 14.228C280.084 13.2747 279.82 12.1747 279.82 10.928C279.82 9.696 280.092 8.60333 280.634 7.65C281.177 6.69667 281.918 5.96333 282.856 5.45C283.795 4.93667 284.844 4.68 286.002 4.68C287.161 4.68 288.21 4.93667 289.148 5.45C290.087 5.96333 290.828 6.69667 291.37 7.65C291.913 8.60333 292.184 9.696 292.184 10.928C292.184 12.16 291.906 13.2527 291.348 14.206C290.791 15.1593 290.028 15.9 289.06 16.428C288.107 16.9413 287.051 17.198 285.892 17.198ZM285.892 15.02C286.538 15.02 287.139 14.866 287.696 14.558C288.268 14.25 288.73 13.788 289.082 13.172C289.434 12.556 289.61 11.808 289.61 10.928C289.61 10.048 289.442 9.30733 289.104 8.706C288.767 8.09 288.32 7.628 287.762 7.32C287.205 7.012 286.604 6.858 285.958 6.858C285.313 6.858 284.712 7.012 284.154 7.32C283.612 7.628 283.179 8.09 282.856 8.706C282.534 9.30733 282.372 10.048 282.372 10.928C282.372 12.2333 282.702 13.2453 283.362 13.964C284.037 14.668 284.88 15.02 285.892 15.02ZM293.828 10.884C293.828 9.66667 294.077 8.58867 294.576 7.65C295.089 6.71133 295.778 5.98533 296.644 5.472C297.524 4.944 298.499 4.68 299.57 4.68C300.362 4.68 301.139 4.856 301.902 5.208C302.679 5.54533 303.295 6 303.75 6.572V0.72H306.28V17H303.75V15.174C303.339 15.7607 302.767 16.2447 302.034 16.626C301.315 17.0073 300.486 17.198 299.548 17.198C298.492 17.198 297.524 16.934 296.644 16.406C295.778 15.8633 295.089 15.1153 294.576 14.162C294.077 13.194 293.828 12.1013 293.828 10.884ZM303.75 10.928C303.75 10.092 303.574 9.366 303.222 8.75C302.884 8.134 302.437 7.66467 301.88 7.342C301.322 7.01933 300.721 6.858 300.076 6.858C299.43 6.858 298.829 7.01933 298.272 7.342C297.714 7.65 297.26 8.112 296.908 8.728C296.57 9.32933 296.402 10.048 296.402 10.884C296.402 11.72 296.57 12.4533 296.908 13.084C297.26 13.7147 297.714 14.1987 298.272 14.536C298.844 14.8587 299.445 15.02 300.076 15.02C300.721 15.02 301.322 14.8587 301.88 14.536C302.437 14.2133 302.884 13.744 303.222 13.128C303.574 12.4973 303.75 11.764 303.75 10.928ZM320.552 4.878V17H318.044V15.57C317.648 16.0687 317.127 16.4647 316.482 16.758C315.851 17.0367 315.176 17.176 314.458 17.176C313.504 17.176 312.646 16.978 311.884 16.582C311.136 16.186 310.542 15.5993 310.102 14.822C309.676 14.0447 309.464 13.106 309.464 12.006V4.878H311.95V11.632C311.95 12.7173 312.221 13.5533 312.764 14.14C313.306 14.712 314.047 14.998 314.986 14.998C315.924 14.998 316.665 14.712 317.208 14.14C317.765 13.5533 318.044 12.7173 318.044 11.632V4.878H320.552ZM323.025 10.928C323.025 9.68133 323.274 8.58867 323.773 7.65C324.286 6.69667 324.99 5.96333 325.885 5.45C326.78 4.93667 327.806 4.68 328.965 4.68C330.432 4.68 331.642 5.032 332.595 5.736C333.563 6.42533 334.216 7.41533 334.553 8.706H331.847C331.627 8.10467 331.275 7.63533 330.791 7.298C330.307 6.96067 329.698 6.792 328.965 6.792C327.938 6.792 327.117 7.15867 326.501 7.892C325.9 8.61067 325.599 9.62267 325.599 10.928C325.599 12.2333 325.9 13.2527 326.501 13.986C327.117 14.7193 327.938 15.086 328.965 15.086C330.417 15.086 331.378 14.448 331.847 13.172H334.553C334.201 14.404 333.541 15.3867 332.573 16.12C331.605 16.8387 330.402 17.198 328.965 17.198C327.806 17.198 326.78 16.9413 325.885 16.428C324.99 15.9 324.286 15.1667 323.773 14.228C323.274 13.2747 323.025 12.1747 323.025 10.928ZM339.978 6.924V13.634C339.978 14.0887 340.081 14.4187 340.286 14.624C340.506 14.8147 340.873 14.91 341.386 14.91H342.926V17H340.946C339.817 17 338.952 16.736 338.35 16.208C337.749 15.68 337.448 14.822 337.448 13.634V6.924H336.018V4.878H337.448V1.864H339.978V4.878H342.926V6.924H339.978ZM418.793 6.264C418.793 7.04133 418.61 7.77467 418.243 8.464C417.877 9.15333 417.29 9.718 416.483 10.158C415.677 10.5833 414.643 10.796 413.381 10.796H410.609V17H408.101V1.71H413.381C414.555 1.71 415.545 1.91533 416.351 2.326C417.173 2.722 417.781 3.26467 418.177 3.954C418.588 4.64333 418.793 5.41333 418.793 6.264ZM413.381 8.75C414.335 8.75 415.046 8.53733 415.515 8.112C415.985 7.672 416.219 7.056 416.219 6.264C416.219 4.592 415.273 3.756 413.381 3.756H410.609V8.75H413.381ZM423.693 0.72V17H421.185V0.72H423.693ZM426.15 10.884C426.15 9.66667 426.399 8.58867 426.898 7.65C427.411 6.71133 428.101 5.98533 428.966 5.472C429.846 4.944 430.814 4.68 431.87 4.68C432.823 4.68 433.652 4.87067 434.356 5.252C435.075 5.61867 435.647 6.08067 436.072 6.638V4.878H438.602V17H436.072V15.196C435.647 15.768 435.067 16.2447 434.334 16.626C433.601 17.0073 432.765 17.198 431.826 17.198C430.785 17.198 429.831 16.934 428.966 16.406C428.101 15.8633 427.411 15.1153 426.898 14.162C426.399 13.194 426.15 12.1013 426.15 10.884ZM436.072 10.928C436.072 10.092 435.896 9.366 435.544 8.75C435.207 8.134 434.759 7.66467 434.202 7.342C433.645 7.01933 433.043 6.858 432.398 6.858C431.753 6.858 431.151 7.01933 430.594 7.342C430.037 7.65 429.582 8.112 429.23 8.728C428.893 9.32933 428.724 10.048 428.724 10.884C428.724 11.72 428.893 12.4533 429.23 13.084C429.582 13.7147 430.037 14.1987 430.594 14.536C431.166 14.8587 431.767 15.02 432.398 15.02C433.043 15.02 433.645 14.8587 434.202 14.536C434.759 14.2133 435.207 13.744 435.544 13.128C435.896 12.4973 436.072 11.764 436.072 10.928ZM448.012 4.68C448.965 4.68 449.816 4.878 450.564 5.274C451.327 5.67 451.921 6.25667 452.346 7.034C452.771 7.81133 452.984 8.75 452.984 9.85V17H450.498V10.224C450.498 9.13867 450.227 8.31 449.684 7.738C449.141 7.15133 448.401 6.858 447.462 6.858C446.523 6.858 445.775 7.15133 445.218 7.738C444.675 8.31 444.404 9.13867 444.404 10.224V17H441.896V4.878H444.404V6.264C444.815 5.76533 445.335 5.37667 445.966 5.098C446.611 4.81933 447.293 4.68 448.012 4.68ZM459.109 6.924V13.634C459.109 14.0887 459.212 14.4187 459.417 14.624C459.637 14.8147 460.004 14.91 460.517 14.91H462.057V17H460.077C458.948 17 458.083 16.736 457.481 16.208C456.88 15.68 456.579 14.822 456.579 13.634V6.924H455.149V4.878H456.579V1.864H459.109V4.878H462.057V6.924H459.109ZM468.769 17.198C467.815 17.198 466.957 17.0293 466.195 16.692C465.447 16.34 464.853 15.8707 464.413 15.284C463.973 14.6827 463.738 14.0153 463.709 13.282H466.305C466.349 13.7953 466.591 14.228 467.031 14.58C467.485 14.9173 468.05 15.086 468.725 15.086C469.429 15.086 469.971 14.954 470.353 14.69C470.749 14.4113 470.947 14.0593 470.947 13.634C470.947 13.1793 470.727 12.842 470.287 12.622C469.861 12.402 469.179 12.16 468.241 11.896C467.331 11.6467 466.591 11.4047 466.019 11.17C465.447 10.9353 464.948 10.576 464.523 10.092C464.112 9.608 463.907 8.97 463.907 8.178C463.907 7.53267 464.097 6.946 464.479 6.418C464.86 5.87533 465.403 5.45 466.107 5.142C466.825 4.834 467.647 4.68 468.571 4.68C469.949 4.68 471.057 5.032 471.893 5.736C472.743 6.42533 473.198 7.37133 473.257 8.574H470.749C470.705 8.03133 470.485 7.59867 470.089 7.276C469.693 6.95333 469.157 6.792 468.483 6.792C467.823 6.792 467.317 6.91667 466.965 7.166C466.613 7.41533 466.437 7.74533 466.437 8.156C466.437 8.47867 466.554 8.75 466.789 8.97C467.023 9.19 467.309 9.366 467.647 9.498C467.984 9.61533 468.483 9.76933 469.143 9.96C470.023 10.1947 470.741 10.4367 471.299 10.686C471.871 10.9207 472.362 11.2727 472.773 11.742C473.183 12.2113 473.396 12.8347 473.411 13.612C473.411 14.3013 473.22 14.9173 472.839 15.46C472.457 16.0027 471.915 16.428 471.211 16.736C470.521 17.044 469.707 17.198 468.769 17.198ZM481 9.322C481 7.826 481.344 6.484 482.034 5.296C482.738 4.108 483.684 3.184 484.872 2.524C486.074 1.84933 487.387 1.512 488.81 1.512C490.438 1.512 491.882 1.91533 493.144 2.722C494.42 3.514 495.344 4.64333 495.916 6.11H492.902C492.506 5.30333 491.956 4.702 491.252 4.306C490.548 3.91 489.734 3.712 488.81 3.712C487.798 3.712 486.896 3.93933 486.104 4.394C485.312 4.84867 484.688 5.50133 484.234 6.352C483.794 7.20267 483.574 8.19267 483.574 9.322C483.574 10.4513 483.794 11.4413 484.234 12.292C484.688 13.1427 485.312 13.8027 486.104 14.272C486.896 14.7267 487.798 14.954 488.81 14.954C489.734 14.954 490.548 14.756 491.252 14.36C491.956 13.964 492.506 13.3627 492.902 12.556H495.916C495.344 14.0227 494.42 15.152 493.144 15.944C491.882 16.736 490.438 17.132 488.81 17.132C487.372 17.132 486.06 16.802 484.872 16.142C483.684 15.4673 482.738 14.536 482.034 13.348C481.344 12.16 481 10.818 481 9.322ZM498.015 10.884C498.015 9.66667 498.265 8.58867 498.763 7.65C499.277 6.71133 499.966 5.98533 500.831 5.472C501.711 4.944 502.679 4.68 503.735 4.68C504.689 4.68 505.517 4.87067 506.221 5.252C506.94 5.61867 507.512 6.08067 507.937 6.638V4.878H510.467V17H507.937V15.196C507.512 15.768 506.933 16.2447 506.199 16.626C505.466 17.0073 504.63 17.198 503.691 17.198C502.65 17.198 501.697 16.934 500.831 16.406C499.966 15.8633 499.277 15.1153 498.763 14.162C498.265 13.194 498.015 12.1013 498.015 10.884ZM507.937 10.928C507.937 10.092 507.761 9.366 507.409 8.75C507.072 8.134 506.625 7.66467 506.067 7.342C505.51 7.01933 504.909 6.858 504.263 6.858C503.618 6.858 503.017 7.01933 502.459 7.342C501.902 7.65 501.447 8.112 501.095 8.728C500.758 9.32933 500.589 10.048 500.589 10.884C500.589 11.72 500.758 12.4533 501.095 13.084C501.447 13.7147 501.902 14.1987 502.459 14.536C503.031 14.8587 503.633 15.02 504.263 15.02C504.909 15.02 505.51 14.8587 506.067 14.536C506.625 14.2133 507.072 13.744 507.409 13.128C507.761 12.4973 507.937 11.764 507.937 10.928ZM516.269 6.638C516.636 6.022 517.12 5.54533 517.721 5.208C518.337 4.856 519.063 4.68 519.899 4.68V7.276H519.261C518.279 7.276 517.531 7.52533 517.017 8.024C516.519 8.52267 516.269 9.388 516.269 10.62V17H513.761V4.878H516.269V6.638ZM533.315 10.642C533.315 11.0967 533.285 11.5073 533.227 11.874H523.965C524.038 12.842 524.397 13.6193 525.043 14.206C525.688 14.7927 526.48 15.086 527.419 15.086C528.768 15.086 529.721 14.5213 530.279 13.392H532.985C532.618 14.5067 531.951 15.4233 530.983 16.142C530.029 16.846 528.841 17.198 527.419 17.198C526.26 17.198 525.219 16.9413 524.295 16.428C523.385 15.9 522.667 15.1667 522.139 14.228C521.625 13.2747 521.369 12.1747 521.369 10.928C521.369 9.68133 521.618 8.58867 522.117 7.65C522.63 6.69667 523.341 5.96333 524.251 5.45C525.175 4.93667 526.231 4.68 527.419 4.68C528.563 4.68 529.582 4.92933 530.477 5.428C531.371 5.92667 532.068 6.63067 532.567 7.54C533.065 8.43467 533.315 9.46867 533.315 10.642ZM530.697 9.85C530.682 8.926 530.352 8.18533 529.707 7.628C529.061 7.07067 528.262 6.792 527.309 6.792C526.443 6.792 525.703 7.07067 525.087 7.628C524.471 8.17067 524.104 8.91133 523.987 9.85H530.697Z" fill="white"/>
</svg>
