<svg width="90" height="24" viewBox="0 0 90 24" fill="none" xmlns="http://www.w3.org/2000/svg">
<path d="M14.9583 8.36C14.9583 9.42 14.7083 10.42 14.2083 11.36C13.7083 12.3 12.9083 13.07 11.8083 13.67C10.7083 14.25 9.29825 14.54 7.57825 14.54H3.79825V23H0.37825V2.15H7.57825C9.17825 2.15 10.5283 2.43 11.6283 2.99C12.7483 3.53 13.5783 4.27 14.1183 5.21C14.6783 6.15 14.9583 7.2 14.9583 8.36ZM7.57825 11.75C8.87825 11.75 9.84825 11.46 10.4883 10.88C11.1283 10.28 11.4483 9.44 11.4483 8.36C11.4483 6.08 10.1583 4.94 7.57825 4.94H3.79825V11.75H7.57825ZM21.64 0.8V23H18.22V0.8H21.64ZM24.9902 14.66C24.9902 13 25.3302 11.53 26.0102 10.25C26.7102 8.97 27.6502 7.98 28.8302 7.28C30.0302 6.56 31.3502 6.2 32.7902 6.2C34.0902 6.2 35.2202 6.46 36.1802 6.98C37.1602 7.48 37.9402 8.11 38.5202 8.87V6.47H41.9702V23H38.5202V20.54C37.9402 21.32 37.1502 21.97 36.1502 22.49C35.1502 23.01 34.0102 23.27 32.7302 23.27C31.3102 23.27 30.0102 22.91 28.8302 22.19C27.6502 21.45 26.7102 20.43 26.0102 19.13C25.3302 17.81 24.9902 16.32 24.9902 14.66ZM38.5202 14.72C38.5202 13.58 38.2802 12.59 37.8002 11.75C37.3402 10.91 36.7302 10.27 35.9702 9.83C35.2102 9.39 34.3902 9.17 33.5102 9.17C32.6302 9.17 31.8102 9.39 31.0502 9.83C30.2902 10.25 29.6702 10.88 29.1902 11.72C28.7302 12.54 28.5002 13.52 28.5002 14.66C28.5002 15.8 28.7302 16.8 29.1902 17.66C29.6702 18.52 30.2902 19.18 31.0502 19.64C31.8302 20.08 32.6502 20.3 33.5102 20.3C34.3902 20.3 35.2102 20.08 35.9702 19.64C36.7302 19.2 37.3402 18.56 37.8002 17.72C38.2802 16.86 38.5202 15.86 38.5202 14.72ZM54.8022 6.2C56.1022 6.2 57.2622 6.47 58.2822 7.01C59.3222 7.55 60.1322 8.35 60.7122 9.41C61.2922 10.47 61.5822 11.75 61.5822 13.25V23H58.1922V13.76C58.1922 12.28 57.8222 11.15 57.0822 10.37C56.3422 9.57 55.3322 9.17 54.0522 9.17C52.7722 9.17 51.7522 9.57 50.9922 10.37C50.2522 11.15 49.8822 12.28 49.8822 13.76V23H46.4622V6.47H49.8822V8.36C50.4422 7.68 51.1522 7.15 52.0122 6.77C52.8922 6.39 53.8222 6.2 54.8022 6.2ZM69.9347 9.26V18.41C69.9347 19.03 70.0747 19.48 70.3547 19.76C70.6547 20.02 71.1547 20.15 71.8547 20.15H73.9547V23H71.2547C69.7147 23 68.5347 22.64 67.7147 21.92C66.8947 21.2 66.4847 20.03 66.4847 18.41V9.26H64.5347V6.47H66.4847V2.36H69.9347V6.47H73.9547V9.26H69.9347ZM83.1068 23.27C81.8068 23.27 80.6368 23.04 79.5968 22.58C78.5768 22.1 77.7668 21.46 77.1668 20.66C76.5668 19.84 76.2468 18.93 76.2068 17.93H79.7468C79.8068 18.63 80.1368 19.22 80.7368 19.7C81.3568 20.16 82.1268 20.39 83.0468 20.39C84.0068 20.39 84.7468 20.21 85.2668 19.85C85.8068 19.47 86.0768 18.99 86.0768 18.41C86.0768 17.79 85.7768 17.33 85.1768 17.03C84.5968 16.73 83.6668 16.4 82.3868 16.04C81.1468 15.7 80.1368 15.37 79.3568 15.05C78.5768 14.73 77.8968 14.24 77.3168 13.58C76.7568 12.92 76.4768 12.05 76.4768 10.97C76.4768 10.09 76.7368 9.29 77.2568 8.57C77.7768 7.83 78.5168 7.25 79.4768 6.83C80.4568 6.41 81.5768 6.2 82.8368 6.2C84.7168 6.2 86.2268 6.68 87.3668 7.64C88.5268 8.58 89.1468 9.87 89.2268 11.51H85.8068C85.7468 10.77 85.4468 10.18 84.9068 9.74C84.3668 9.3 83.6368 9.08 82.7168 9.08C81.8168 9.08 81.1268 9.25 80.6468 9.59C80.1668 9.93 79.9268 10.38 79.9268 10.94C79.9268 11.38 80.0868 11.75 80.4068 12.05C80.7268 12.35 81.1168 12.59 81.5768 12.77C82.0368 12.93 82.7168 13.14 83.6168 13.4C84.8168 13.72 85.7968 14.05 86.5568 14.39C87.3368 14.71 88.0068 15.19 88.5668 15.83C89.1268 16.47 89.4168 17.32 89.4368 18.38C89.4368 19.32 89.1768 20.16 88.6568 20.9C88.1368 21.64 87.3968 22.22 86.4368 22.64C85.4968 23.06 84.3868 23.27 83.1068 23.27Z" fill="white"/>
</svg>
